<svg xmlns="http://www.w3.org/2000/svg" width="55" height="55" viewBox="0 0 512 512"><path d="M255.992 464c-8.832 0-16-7.168-16-16V208c0-8.832 7.168-16 16-16s16 7.168 16 16v240c0 8.832-7.168 16-16 16z" fill="#455a64"/><circle cx="255.992" cy="112" r="112" fill="#f44336"/><path d="M303.992 112c-8.832 0-16-7.168-16-16s-7.168-16-16-16-16-7.168-16-16 7.168-16 16-16c26.464 0 48 21.536 48 48 0 8.832-7.168 16-16 16z" fill="#ef9a9a"/><path d="M127.992 512c-6.464 0-12.576-3.968-14.976-10.368-3.104-8.288 1.088-17.504 9.344-20.608l256-96c8.224-3.168 17.504 1.088 20.608 9.344 3.136 8.288-1.056 17.504-9.344 20.608l-256 96a15.769 15.769 0 0 1-5.632 1.024z" fill="#455a64"/><path d="M383.992 512c-1.888 0-3.776-.32-5.632-1.024l-256-96c-8.256-3.104-12.448-12.32-9.344-20.608 3.104-8.256 12.32-12.544 20.608-9.344l256 96c8.288 3.104 12.48 12.32 9.344 20.608-2.4 6.4-8.512 10.368-14.976 10.368z" fill="#455a64"/></svg>