<svg version="1.0" xmlns="http://www.w3.org/2000/svg" width="20px" viewBox="0 0 528 332">
	<g fill="rgba(240,245,250,1)">
		<path
			d="M519.9,238.2L519.9,238.2L519.9,238.2c-1-2.3-2.1-4.5-3.3-6.6l-96-192.2l0,0
						c-10.7-21.3-32.6-35.9-58.1-35.9c-35.9,0-65,29.1-65,65c0,10.5,2.5,20.3,6.9,29.1l0,0L401,290.7c-0.2-0.4-0.4-0.9-0.6-1.3
						c0.8,1.7,1.5,3.4,2.4,5.1l0,0c0.9,1.6,1.9,3.2,2.9,4.8c0.3,0.4,0.5,0.8,0.8,1.2c0.9,1.3,1.9,2.7,2.9,3.9
						c0.2,0.2,0.3,0.4,0.4,0.6c1.2,1.4,2.4,2.8,3.7,4.1c0.3,0.3,0.7,0.7,1,1c1.1,1.1,2.2,2.1,3.4,3.1c0.3,0.2,0.5,0.5,0.8,0.7
						c1.4,1.2,2.9,2.3,4.4,3.3c0.4,0.2,0.7,0.5,1.1,0.7c1.3,0.8,2.6,1.6,3.9,2.4c0.4,0.2,0.8,0.4,1.1,0.6c1.6,0.9,3.3,1.7,5,2.4
						c0.3,0.1,0.7,0.3,1,0.4c1.4,0.6,2.9,1.1,4.4,1.6c0.5,0.1,0.9,0.3,1.4,0.4c1.8,0.5,3.6,1,5.5,1.4c0.2,0.1,0.5,0.1,0.7,0.1
						c1.7,0.3,3.4,0.6,5.1,0.8c0.5,0.1,1,0.1,1.5,0.2c2,0.2,3.9,0.3,5.9,0.3c35.9,0,65-29.1,65-65C525,254.5,523.2,246,519.9,238.2z
						 M398,283.1c0.6,1.8,1.2,3.5,1.9,5.2C399.2,286.6,398.6,284.9,398,283.1z M395,263.5c0,2,0.1,4,0.3,5.9
						C395.1,267.5,395,265.5,395,263.5z M395.4,270.7c0.2,1.9,0.5,3.8,0.9,5.6C395.9,274.5,395.6,272.6,395.4,270.7z M396.5,277.2
						c0.4,1.7,0.8,3.3,1.3,5C397.3,280.6,396.8,278.9,396.5,277.2z"
		/>
		<path
			d="M225.6,39.4L225.6,39.4c-10.7-21.3-32.7-35.9-58.1-35.9c-25.4,0-47.4,14.6-58.1,35.9h-0.1
					c0,0-98.2,196.3-99.1,198.4l-0.1,0.2h0c-3.5,8.2-5.3,17.2-5.2,26.7c0.6,33.8,28.2,62.2,62,63.7c37.3,1.7,68-28,68-64.9
					c0-27.5-17.1-51-41.3-60.5c-9.1-3.6-13.2-14.1-8.9-22.8l25.8-51.6c2.9-5.9,11.3-5.9,14.2,0c0,0,82.3,164.7,83,165.9c0,0,0,0,0,0
					c12,22.2,36.6,36.5,64.1,33.7c30.6-3.2,55.2-28.4,57.8-59.1c1.2-13.7-2-26.6-8.2-37.5L225.6,39.4z"
		/>
	</g>
</svg>
